# AST/ASF file generated using VICON BodyLanguage
# -----------------------------------------------
:version 1.10
:name VICON
:units
  mass 1.0
  length 0.45
  angle deg
:documentation
   .ast/.asf automatically generated from VICON data using
   VICON BodyBuilder and BodyLanguage model FoxedUp or BRILLIANT.MOD
:root
   order TX TY TZ RX RY RZ
   axis XYZ
   position 0 0 0  
   orientation 0 0 0 
:bonedata
  begin
     id 1 
     name lhipjoint
     direction 0.603808 -0.713975 0.35448 
     length 2.2025 
     axis 0 0 0  XYZ
  end
  begin
     id 2 
     name lfemur
     direction 0.34202 -0.939693 0  
     length 6.55877  
     axis 0 0 20  XYZ
    dof rx ry rz
    limits (-160.0 20.0)
           (-70.0 70.0)
           (-60.0 70.0)
  end
  begin
     id 3 
     name ltibia
     direction 0.34202 -0.939693 0   
     length 6.80302   
     axis 0 0 20   XYZ
    dof rx
    limits (-10.0 170.0)
  end
  begin
     id 4 
     name lfoot
     direction 0.091848 -0.25235 0.963267   
     length 2.03446   
     axis -90 7.62852e-016 20   XYZ
    dof rx rz
    limits (-45.0 90.0)
           (-70.0 20.0)
  end
  begin
     id 5 
     name ltoes
     direction 1.53608e-011 -4.21925e-011 1   
     length 1.02033   
     axis -90 7.62852e-016 20   XYZ
    dof rx
    limits (-90.0 20.0)
  end
  begin
     id 6 
     name rhipjoint
     direction -0.587285 -0.724947 0.359928   
     length 2.16916  
     axis 0 0 0  XYZ 
  end
  begin
     id 7 
     name rfemur
     direction -0.34202 -0.939693 0   
     length 6.43173   
     axis 0 0 -20   XYZ
    dof rx ry rz
    limits (-160.0 20.0)
           (-70.0 70.0)
           (-70.0 60.0)
  end
  begin
     id 8 
     name rtibia
     direction -0.34202 -0.939693 0   
     length 6.70662   
     axis 0 0 -20   XYZ
    dof rx
    limits (-10.0 170.0)
 end
 begin
     id 9 
     name rfoot
     direction -0.11854 -0.325686 0.938018   
     length 2.0773  
     axis -90 -7.62852e-016 -20   XYZ
    dof rx rz
    limits (-45.0 90.0)
           (-20.0 70.0)
  end
  begin
     id 10 
     name rtoes
     direction -1.53547e-011 -4.21838e-011 1   
     length 1.03267   
     axis -90 -7.62852e-016 -20   XYZ
    dof rx
    limits (-90.0 20.0)
  end
  begin
     id 11 
     name lowerback
     direction -0.0286554 0.999539 0.0100613   
     length 2.08751   
     axis 0 0 0   XYZ
    dof rx ry rz
    limits (-20.0 45.0)
           (-30.0 30.0)
           (-30.0 30.0)
  end
  begin
     id 12 
     name upperback
     direction 0.0227093 0.999705 -0.00860929   
     length 2.08517   
     axis 0 0 0   XYZ
    dof rx ry rz
    limits (-20.0 45.0)
           (-30.0 30.0)
           (-30.0 30.0)
  end
  begin
     id 13 
     name thorax
     direction 0.0351627 0.999285 -0.013892   
     length 2.08412   
     axis 0 0 0   XYZ
    dof rx ry rz
    limits (-20.0 45.0)
           (-30.0 30.0)
           (-30.0 30.0)
  end
  begin
     id 14 
     name lowerneck
     direction -0.0696283 0.997344 0.0213922   
     length 1.44164   
     axis 0 0 0   XYZ
    dof rx ry rz
    limits (-20.0 45.0)
           (-30.0 30.0)
           (-30.0 30.0)
  end
  begin
     id 15 
     name upperneck
     direction 0.0531 0.990412 -0.127531   
     length 1.45022   
     axis 0 0 0   XYZ
    dof rx ry rz
    limits (-20.0 45.0)
           (-30.0 30.0)
           (-30.0 30.0)
  end
  begin
     id 16
     name head
     direction 0.0188154 0.998548 -0.0504727  
     length 1.45845  
     axis 0 0 0   XYZ
    dof rx ry rz
    limits (-20.0 45.0)
           (-30.0 30.0)
           (-30.0 30.0)
  end
  begin
     id 17 
     name lclavicle
     direction 0.961559 0.260051 0.088188  
     length 2.86057  
     axis 0 0 0   XYZ
    dof ry rz
    limits (-20.0 10.0)
           (0.0 20.0)
  end
  begin
     id 18 
     name lhumerus
     direction 1 -4.48959e-011 2.88185e-027   
     length 4.36901   
     axis 180 -30 -90   XYZ
    dof rx ry rz
    limits (-60.0 90.0)
           (-90.0 90.0)
           (-90.0 90.0)
  end
  begin
     id 19
     name lradius
     direction 1 -4.48965e-011 -3.92618e-028   
     length 3.21737   
     axis 180 -30 -90   XYZ
    dof rx
    limits (-10.0 170.0)
  end
  begin
     id 20
     name lwrist
     direction 1 -4.49037e-011 2.57246e-027   
     length 1.60869   
     axis -1.61769e-015 90 90   XYZ
    dof ry
    limits (-180.0 0.0)
 end
  begin
     id 21 
     name lhand
     direction 1 -4.48807e-011 5.12958e-027   
     length 0.564313   
     axis -3.27988e-015 90 90   XYZ
    dof rx rz
    limits (-90.0 90.0)
           (-45.0 45.0)
  end
  begin
     id 22 
     name lfingers
     direction 1 -4.48879e-011 1.02687e-026   
     length 0.454963   
     axis -6.5598e-015 90 90   XYZ
    dof rx
    limits (0.0 90.0)
  end
  begin
     id 23
     name lthumb
     direction 0.707107 -6.3475e-011 0.707107   
     length 0.653239   
     axis -90 45 2.19363e-014   XYZ
    dof rx rz
    limits (-45.0 45.0)
           (-45.0 45.0)
  end
  begin
     id 24 
     name rclavicle
     direction -0.954677 0.253915 0.155304   
     length 3.11497  
     axis 0 0 0   XYZ 
    dof ry rz
    limits (-10.0 20.0)
           (-20.0 0.0)
  end
  begin
     id 25 
     name rhumerus
     direction -1 -4.48958e-011 -8.20169e-028  
     length 4.34118   
     axis 180 30 90   XYZ
    dof rx ry rz
    limits (-90.0 60.0)
           (-90.0 90.0)
           (-90.0 90.0)
  end
  begin
     id 26 
     name rradius
     direction -1 -4.48978e-011 1.5676e-027   
     length 3.09531   
     axis 180 30 90   XYZ
    dof rx
    limits (-10.0 170.0)
  end
  begin
     id 27 
     name rwrist
     direction -1 -4.49001e-011 2.57123e-027   
     length 1.54765   
     axis -1.61769e-015 -90 -90   XYZ
    dof ry
    limits (-180.0 0.0)
  end
  begin
     id 28
     name rhand
     direction -1 -4.48847e-011 5.13225e-027   
     length 0.597446   
     axis -3.27988e-015 -90 -90   XYZ
    dof rx rz
    limits (-90.0 90.0)
           (-45.0 45.0)
  end
  begin
     id 29
     name rfingers
     direction -1 -4.49094e-011 1.02974e-026   
     length 0.481677   
     axis -6.5598e-015 -90 -90   XYZ
    dof rx
    limits (0.0 90.0)
  end
  begin
     id 30
     name rthumb
     direction -0.707107 -6.34859e-011 0.707107   
     length 0.691594   
     axis -90 -45 -2.19363e-014   XYZ
    dof rx rz
    limits (-45.0 45.0)
           (-45.0 45.0)
  end
:hierarchy
  begin
    root lhipjoint rhipjoint lowerback
    lhipjoint lfemur
    lfemur ltibia
    ltibia lfoot
    lfoot ltoes
    rhipjoint rfemur
    rfemur rtibia
    rtibia rfoot
    rfoot rtoes
    lowerback upperback
    upperback thorax
    thorax lowerneck lclavicle rclavicle
    lowerneck upperneck
    upperneck head
    lclavicle lhumerus
    lhumerus lradius
    lradius lwrist
    lwrist lhand lthumb
    lhand lfingers
    rclavicle rhumerus
    rhumerus rradius
    rradius rwrist
    rwrist rhand rthumb
    rhand rfingers
  end

#!OML:ASF I:\Acrobat_Osman\acrobat\cartwheel_test 2\Patient 1\Session 1\acrobat.ASF
:FULLY-SPECIFIED
:DEGREES
403
root 0.958075 15.7347 -9.38314 187.678 526.13 -178.961
lowerback -4.91541 -4.7937 -5.28868
upperback 0.793576 -6.20062 3.23064
thorax 4.50819 -3.26522 5.74832
lowerneck 4.46799 -17.8031 -15.7899
upperneck 0.495267 -24.801 15.0289
head 3.25512 -12.4989 5.69657
rclavicle 1.09332e-014 -1.35174e-014
rhumerus -43.7124 11.9008 -79.9282
rradius 86.8228
rwrist -8.24298
rhand -23.3747 39.4142
rfingers 7.12502
rthumb 3.08125 9.45673
lclavicle 1.09332e-014 -1.35174e-014
lhumerus -52.5428 -17.1119 96.8985
lradius 112.593
lwrist 20.2737
lhand -12.5319 -321.102
lfingers 7.12502
lthumb 13.5444 -1011.56
rfemur -13.8563 16.6347 10.9587
rtibia 19.5372
rfoot -16.7635 -1.81821
rtoes -19.6336
lfemur -9.43488 3.03713 -11.2846
ltibia 24.7607
lfoot -15.1939 22.7413
ltoes -12.7457
404
root 1.10531 15.7243 -9.4443 187.75 526.035 -178.968
lowerback -4.95716 -4.81133 -5.2923
upperback 0.77166 -6.22345 3.26082
thorax 4.51604 -3.27681 5.77702
lowerneck 4.54761 -17.9039 -15.7916
upperneck 0.327333 -24.9336 15.0688
head 3.21728 -12.569 5.70561
rclavicle 5.38706e-014 1.90833e-014
rhumerus -43.3154 11.8904 -79.9698
rradius 86.7414
rwrist -8.05044
rhand -23.2779 39.644
rfingers 7.12502
rthumb 3.17472 9.68792
lclavicle 5.38706e-014 1.90833e-014
lhumerus -52.5588 -17.0308 96.792
lradius 112.794
lwrist 20.2095
lhand -12.5846 -321.128
lfingers 7.12502
lthumb 13.4936 -1011.59
rfemur -13.6786 16.686 10.29
rtibia 18.9415
rfoot -16.4253 -2.30942
rtoes -20.9993
lfemur -9.36334 2.45469 -12.0837
ltibia 24.3187
lfoot -15.7218 23.8811
ltoes -13.3551
405
root 1.25659 15.719 -9.5169 187.755 525.887 -178.969
lowerback -4.8197 -4.81525 -5.24934
upperback 0.790165 -6.23781 3.27503
thorax 4.45686 -3.28235 5.77662
lowerneck 4.6291 -18.045 -15.7
upperneck 0.0320731 -25.1054 15.1364
head 3.13935 -12.6599 5.71372
rclavicle -2.24627e-014 -1.82882e-014
rhumerus -42.86 11.7531 -80.0807
rradius 86.5771
rwrist -7.70971
rhand -23.3294 39.7752
rfingers 7.12502
rthumb 3.12495 9.81836
lclavicle -2.24627e-014 -1.82882e-014
lhumerus -52.4709 -16.9863 96.6567
lradius 112.942
lwrist 20.2143
lhand -12.5455 -320.969
lfingers 7.12502
lthumb 13.5313 -1011.43
rfemur -13.4182 16.9141 9.59328
rtibia 18.2876
rfoot -15.9505 -3.08489
rtoes -22.0588
lfemur -9.37211 0.50115 -12.9687
ltibia 24.1119
lfoot -16.0654 26.084
ltoes -13.6385
406
root 1.40451 15.7271 -9.59245 187.783 525.83 -178.772
lowerback -4.56905 -4.76658 -5.45547
upperback 0.813674 -6.16955 3.22467
thorax 4.3471 -3.25102 5.86628
lowerneck 4.74709 -18.199 -15.5445
upperneck -0.219939 -25.2972 15.1613
head 3.05795 -12.7621 5.70353
rclavicle 5.22804e-014 -1.74931e-014
rhumerus -42.6725 11.5465 -80.2511
rradius 86.6249
rwrist -7.28963
rhand -23.4663 39.853
rfingers 7.12502
rthumb 2.99283 9.89428
lclavicle 5.22804e-014 -1.74931e-014
lhumerus -52.3678 -17.066 96.5129
lradius 113.015
lwrist 20.1964
lhand -12.4892 -320.888
lfingers 7.12502
lthumb 13.5855 -1011.35
rfemur -13.2885 17.2781 8.68624
rtibia 17.8386
rfoot -15.5629 -4.03105
rtoes -23.3608
lfemur -9.33263 -1.96032 -14.0249
ltibia 23.9917
lfoot -16.8777 28.2696
ltoes -11.9074
407
root 1.53541 15.735 -9.66423 187.734 525.864 -178.469
lowerback -4.20071 -4.70475 -6.00702
upperback 0.86765 -6.07291 3.18673
thorax 4.23756 -3.21563 6.17392
lowerneck 4.78718 -18.2924 -15.5092
upperneck -0.312281 -25.4162 15.1477
head 3.03503 -12.8234 5.68924
rclavicle -1.15295e-014 -1.82882e-014
rhumerus -42.759 11.4011 -80.4142
rradius 86.9457
rwrist -7.07684
rhand -23.4134 39.9063
rfingers 7.12502
rthumb 3.04389 9.94826
lclavicle -1.15295e-014 -1.82882e-014
lhumerus -52.3925 -17.1695 96.3477
lradius 113.072
lwrist 20.1688
lhand -12.6431 -320.739
lfingers 7.12502
lthumb 13.4372 -1011.19
rfemur -13.2096 17.6984 7.78276
rtibia 17.6146
rfoot -15.3103 -5.02469
rtoes -25.0949
lfemur -9.22899 -3.41831 -15.0262
ltibia 23.9624
lfoot -17.1045 29.5117
ltoes -12.268
408
root 1.65537 15.7436 -9.735 187.753 525.998 -178.108
lowerback -3.90053 -4.65101 -6.73032
upperback 0.946817 -5.97997 3.17721
thorax 4.21404 -3.1902 6.60151
lowerneck 4.66013 -18.3617 -15.5706
upperneck -0.318006 -25.4922 15.0905
head 3.0633 -12.8553 5.65688
rclavicle -3.13086e-014 -2.78299e-014
rhumerus -42.6836 11.362 -80.5919
rradius 87.0607
rwrist -6.88691
rhand -23.4165 40.0764
rfingers 7.12502
rthumb 3.04085 10.1184
lclavicle -3.13086e-014 -2.78299e-014
lhumerus -52.303 -17.1535 96.1047
lradius 113.046
lwrist 20.1404
lhand -12.8037 -320.556
lfingers 7.12502
lthumb 13.2825 -1011
rfemur -13.3724 17.4016 6.90692
rtibia 17.57
rfoot -14.8773 -5.29988
rtoes -26.0291
lfemur -9.26679 -3.87434 -15.9433
ltibia 24.0566
lfoot -17.3567 29.6957
ltoes -12.6676
409
root 1.77498 15.7614 -9.81201 187.918 526.242 -177.978
lowerback -3.74334 -4.54363 -7.05424
upperback 0.970329 -5.82838 3.14066
thorax 4.1545 -3.12122 6.77326
lowerneck 4.54977 -18.4244 -15.558
upperneck -0.247955 -25.5663 15.0513
head 3.10498 -12.8868 5.62009
rclavicle -1.54058e-014 -2.46493e-014
rhumerus -42.5301 11.2513 -81.001
rradius 86.9162
rwrist -6.56744
rhand -23.7346 40.3836
rfingers 7.12502
rthumb 2.73369 10.4213
lclavicle -1.54058e-014 -2.46493e-014
lhumerus -52.1894 -17.1915 95.7148
lradius 112.994
lwrist 20.1123
lhand -12.7514 -320.467
lfingers 7.12502
lthumb 13.3329 -1010.91
rfemur -13.9722 16.4844 6.27796
rtibia 17.7292
rfoot -14.2849 -5.11895
rtoes -25.7645
lfemur -9.58428 -4.12725 -16.5709
ltibia 24.2404
lfoot -18.3731 29.4785
ltoes -10.2009
410
root 1.89395 15.7778 -9.89593 188.08 526.546 -178.252
lowerback -3.60438 -4.38965 -6.78409
upperback 0.961562 -5.64292 3.12011
thorax 4.00413 -3.01603 6.62947
lowerneck 4.41767 -18.4825 -15.5358
upperneck -0.0832547 -25.6428 15.0457
head 3.18249 -12.9179 5.58376
rclavicle -2.00773e-014 4.37326e-015
rhumerus -42.4199 11.1685 -81.6062
rradius 86.7931
rwrist -6.28908
rhand -23.9109 40.5248
rfingers 7.12502
rthumb 2.56337 10.5605
lclavicle -2.00773e-014 4.37326e-015
lhumerus -52.257 -17.3261 95.211
lradius 113.052
lwrist 20.0875
lhand -12.7732 -320.43
lfingers 7.12502
lthumb 13.3118 -1010.87
rfemur -14.784 15.6789 6.08326
rtibia 18.0086
rfoot -13.6741 -5.19467
rtoes -24.7194
lfemur -10.1346 -4.26583 -16.8092
ltibia 24.5384
lfoot -18.9008 29.5955
ltoes -8.9067
411
root 2.01265 15.7855 -9.97703 188.095 526.703 -178.557
lowerback -3.37529 -4.27329 -6.41324
upperback 1.0379 -5.51584 3.09425
thorax 3.89319 -2.94191 6.41935
lowerneck 4.14904 -18.5639 -15.4977
upperneck 0.0630667 -25.7299 15.0135
head 3.27133 -12.9485 5.52386
rclavicle 1.47101e-014 -1.98785e-015
rhumerus -42.2992 11.1883 -82.2102
rradius 86.7372
rwrist -5.99607
rhand -23.6542 40.4325
rfingers 7.12502
rthumb 2.81131 10.4713
lclavicle 1.47101e-014 -1.98785e-015
lhumerus -52.3422 -17.4758 94.6553
lradius 113.199
lwrist 20.0976
lhand -12.7603 -320.474
lfingers 7.12502
lthumb 13.3242 -1010.92
rfemur -15.3621 14.8485 6.05949
rtibia 18.3156
rfoot -12.9026 -5.60636
rtoes -23.5103
lfemur -10.6456 -4.20966 -17.0513
ltibia 24.9601
lfoot -18.7082 29.8524
ltoes -9.75903
412
root 2.13279 15.7929 -10.0526 188.069 526.814 -178.73
lowerback -3.1457 -4.17019 -6.14194
upperback 1.14164 -5.39905 3.02744
thorax 3.81953 -2.87672 6.21938
lowerneck 4.0633 -18.623 -15.421
upperneck 0.0102216 -25.7928 15.0515
head 3.27369 -12.977 5.51119
rclavicle -4.42296e-014 7.15625e-015
rhumerus -42.3158 11.3262 -82.7772
rradius 86.7523
rwrist -5.52831
rhand -23.6583 40.4008
rfingers 7.12502
rthumb 2.80732 10.4395
lclavicle -4.42296e-014 7.15625e-015
lhumerus -52.3998 -17.5614 94.0378
lradius 113.335
lwrist 20.0925
lhand -12.3593 -320.91
lfingers 7.12502
lthumb 13.7108 -1011.38
rfemur -15.8263 13.7342 6.02485
rtibia 18.7623
rfoot -12.0114 -6.02131
rtoes -22.9996
lfemur -11.0436 -3.91427 -17.4418
ltibia 25.3385
lfoot -18.4899 29.8881
ltoes -10.2894
413
root 2.25113 15.8034 -10.1263 188.196 527.18 -178.663
lowerback -3.00653 -4.05752 -6.129
upperback 1.18488 -5.25261 2.93493
thorax 3.7525 -2.80085 6.1361
lowerneck 4.1636 -18.6104 -15.3874
upperneck -0.194329 -25.7681 15.0889
head 3.19428 -12.9718 5.54199
rclavicle 2.5842e-014 -2.22639e-014
rhumerus -42.4162 11.8088 -83.2672
rradius 86.82
rwrist -4.99738
rhand -23.7996 40.439
rfingers 7.12502
rthumb 2.67095 10.476
lclavicle 2.5842e-014 -2.22639e-014
lhumerus -52.5115 -17.4192 93.4354
lradius 113.423
lwrist 20.0554
lhand -12.0907 -321.339
lfingers 7.12502
lthumb 13.9696 -1011.83
rfemur -16.6176 12.4816 5.67867
rtibia 19.3855
rfoot -11.1729 -5.84849
rtoes -21.5145
lfemur -11.4818 -3.4453 -18.1028
ltibia 25.6227
lfoot -18.4723 29.862
ltoes -10.0485
414
root 2.34587 15.8138 -10.1868 188.132 527.434 -178.36
lowerback -2.66782 -4.03098 -6.65549
upperback 1.32238 -5.21226 2.87307
thorax 3.74324 -2.79682 6.39002
lowerneck 4.02259 -18.5721 -15.4338
upperneck -0.263832 -25.6901 15.0383
head 3.1825 -12.9282 5.53257
rclavicle -4.47266e-015 -2.18663e-014
rhumerus -42.3983 12.5132 -83.6338
rradius 86.8654
rwrist -4.63547
rhand -23.3477 40.5661
rfingers 7.12502
rthumb 3.10734 10.609
lclavicle -4.47266e-015 -2.18663e-014
lhumerus -52.6406 -17.1516 92.9526
lradius 113.55
lwrist 20.2397
lhand -12.4776 -321.032
lfingers 7.12502
lthumb 13.5967 -1011.5
rfemur -17.1608 11.6626 5.20546
rtibia 20.0923
rfoot -10.4408 -5.9627
rtoes -19.5425
lfemur -11.6082 -2.58543 -18.8866
ltibia 25.8153
lfoot -18.4658 29.2828
ltoes -9.63701
415
root 2.43756 15.8219 -10.2491 187.972 527.772 -178.285
lowerback -2.30953 -3.9216 -6.90635
upperback 1.48115 -5.07531 2.82417
thorax 3.70358 -2.73786 6.51069
lowerneck 3.94225 -18.5681 -15.4108
upperneck -0.277365 -25.6698 15.0072
head 3.18074 -12.9153 5.51714
rclavicle -1.4879e-013 1.74931e-014
rhumerus -42.4263 13.0894 -83.9647
rradius 86.9049
rwrist -4.18619
rhand -23.0559 40.8021
rfingers 7.12502
rthumb 3.38914 10.8493
lclavicle -1.4879e-013 1.74931e-014
lhumerus -52.7512 -16.9818 92.514
lradius 113.657
lwrist 20.5889
lhand -13.0047 -320.543
lfingers 7.12502
lthumb 13.0887 -1010.97
rfemur -17.6151 10.8453 5.0357
rtibia 20.7869
rfoot -9.47386 -6.03628
rtoes -17.917
lfemur -11.6455 -1.82451 -19.4259
ltibia 25.9282
lfoot -18.6318 28.7533
ltoes -8.35515
416
root 2.5259 15.8301 -10.3 187.725 527.956 -178.391
lowerback -2.05978 -3.82568 -6.95498
upperback 1.63912 -4.95869 2.81185
thorax 3.71186 -2.68635 6.54589
lowerneck 4.1493 -18.6389 -15.2311
upperneck -0.400953 -25.7683 14.9613
head 3.09693 -12.9745 5.50237
rclavicle 1.15295e-014 2.14687e-014
rhumerus -42.5969 13.4343 -84.2356
rradius 86.926
rwrist -3.53366
rhand -23.1751 40.9877
rfingers 7.12502
rthumb 3.274 11.033
lclavicle 1.15295e-014 2.14687e-014
lhumerus -52.8513 -16.8258 92.0969
lradius 113.582
lwrist 20.7664
lhand -13.0907 -320.614
lfingers 7.12502
lthumb 13.0058 -1011.04
rfemur -17.8075 10.2764 5.09746
rtibia 21.3814
rfoot -8.73593 -6.4282
rtoes -14.7921
lfemur -11.5804 -1.22392 -19.7177
ltibia 26.0231
lfoot -18.6031 28.2763
ltoes -7.67103
